<?xml version="1.0" encoding="UTF-8"?>
<svg width="512" height="512" viewBox="0 0 512 512" fill="none" xmlns="http://www.w3.org/2000/svg">
    <defs>
        <linearGradient id="goldGradient" x1="0%" y1="0%" x2="100%" y2="100%">
            <stop offset="0%" style="stop-color:#FFD700"/>
            <stop offset="50%" style="stop-color:#D4AF37"/>
            <stop offset="100%" style="stop-color:#B4941E"/>
        </linearGradient>
    </defs>
    <path d="M256 48C141.1 48 48 141.1 48 256s93.1 208 208 208 208-93.1 208-208S370.9 48 256 48zm76.5 357.3c-3.3 1.2-6.8-1.3-7.2-4.8-3.2-24.7-2.4-45.5-3.2-47.4-1.4-3.2-11.9-7.8-26.3-14.3-13.3-6.1-28.4-13-42.5-20.9-28.7-16-50.9-34.3-63.5-52.2-16.9-24-20.8-49.6-16.2-74.4 1.3-7.1 3.2-14.3 5.7-21.1 2.6-7 5.6-13.6 11.3-22.6 5.4-8.5 12.6-17.7 20.8-26.6 5-5.5 15.2-14.9 30.1-25.9 2.1-1.6 5.2-1 6.6 1.2 16.3 25.4 34.3 40.1 51.7 50.7 19.2 11.7 37.7 17.3 52.2 21.2 7.3 2 13.6 3.7 18.4 5.4 9.5 3.4 13.5 6.1 14.4 7 1.9 1.8 2.4 3.8 2.5 5.9.1 4.5-2.5 9.3-6.5 13.4-4.1 4.2-9.6 7.7-15.2 9.9-11.3 4.4-23.5 4.3-30.4 4.3h-2.6c-1.1.1-2.1.3-3 .7-4.5 2-5.4 8.2-5.5 16.3 0 4.3 0 9.1.6 14.3.8 7.3 2.4 15.3 5.3 23.3.8 2.2 1.7 4.5 2.7 6.7 2.8 6.2 6.1 12.4 10.3 18.2 8.1 11.3 19.1 21.3 34.5 28.4 15.4 7.1 34.7 11.7 59.3 11.7 2 0 3.8 1.3 4.5 3.2 1.7 5 3.2 10.2 4.4 15.6.5 2.2-.9 4.4-3.1 5z" fill="url(#goldGradient)"/>
</svg>
